<svg xmlns="http://www.w3.org/2000/svg" xmlns:xlink="http://www.w3.org/1999/xlink" viewBox="0,0,256,256" width="38px" height="38px" fill-rule="nonzero">
	<g fill="#ffffff" fill-rule="nonzero" stroke="none" stroke-width="1" stroke-linecap="butt" stroke-linejoin="miter" stroke-miterlimit="10" stroke-dasharray="" stroke-dashoffset="0" font-family="none" font-weight="none" font-size="none" text-anchor="none" style="mix-blend-mode: normal">
		<g transform="scale(4,4)">
			<path d="M32,8c-0.91125,0 -1.82195,0.30919 -2.56445,0.92969l-20.63477,17.24219c-0.765,0.639 -1.0373,1.75333 -0.5293,2.61133c0.647,1.092 2.07877,1.30534 3.00977,0.52734l20.39648,-17.04102c0.187,-0.156 0.45753,-0.156 0.64453,0l20.39648,17.04297c0.374,0.313 0.8273,0.46484 1.2793,0.46484c0.695,0 1.38462,-0.36069 1.76563,-1.05469c0.465,-0.848 0.19122,-1.91906 -0.55078,-2.53906l-3.21289,-2.68555v-8.49805c0,-1.105 -0.895,-2 -2,-2h-2c-1.105,0 -2,0.895 -2,2v3.48438l-11.43555,-9.55469c-0.7425,-0.6205 -1.6532,-0.92969 -2.56445,-0.92969zM32,16l-20,16.70508v14.29492c0,2.761 2.239,5 5,5h30c2.761,0 5,-2.239 5,-5v-14.29492zM28,32h8c1.105,0 2,0.895 2,2v14h-12v-14c0,-1.105 0.895,-2 2,-2z">
			</path>
		</g>
	</g>
</svg>
